<svg width="1744" height="850" viewBox="0 0 1744 850" fill="none" xmlns="http://www.w3.org/2000/svg">
<path d="M267.5 437C388.174 437 486 339.174 486 218.5C486 97.8258 388.174 0 267.5 0C146.826 0 49 97.8258 49 218.5C49 339.174 146.826 437 267.5 437Z" fill="#CF2727" fill-opacity="0.5"/>
<path d="M98 847C152.124 847 196 803.124 196 749C196 694.876 152.124 651 98 651C43.8761 651 0 694.876 0 749C0 803.124 43.8761 847 98 847Z" fill="#134741" fill-opacity="0.48"/>
<path d="M303 641C322.882 641 339 624.882 339 605C339 585.118 322.882 569 303 569C283.118 569 267 585.118 267 605C267 624.882 283.118 641 303 641Z" fill="#E9A238" fill-opacity="0.51"/>
<path d="M388 847C415.062 847 437 825.062 437 798C437 770.938 415.062 749 388 749C360.938 749 339 770.938 339 798C339 825.062 360.938 847 388 847Z" fill="#403DD2" fill-opacity="0.65"/>
<path d="M573.5 695C621.825 695 661 655.825 661 607.5C661 559.175 621.825 520 573.5 520C525.175 520 486 559.175 486 607.5C486 655.825 525.175 695 573.5 695Z" fill="#33B11E" fill-opacity="0.5"/>
<path d="M617.5 136C641.524 136 661 116.524 661 92.5C661 68.4756 641.524 49 617.5 49C593.476 49 574 68.4756 574 92.5C574 116.524 593.476 136 617.5 136Z" fill="#26C766" fill-opacity="0.55"/>
<path d="M767 458C801.242 458 829 430.242 829 396C829 361.758 801.242 334 767 334C732.758 334 705 361.758 705 396C705 430.242 732.758 458 767 458Z" fill="#B647C8" fill-opacity="0.5"/>
<path d="M1044 213C1077.14 213 1104 186.137 1104 153C1104 119.863 1077.14 93 1044 93C1010.86 93 984 119.863 984 153C984 186.137 1010.86 213 1044 213Z" fill="#CF2727" fill-opacity="0.5"/>
<path d="M1386.5 257C1457.47 257 1515 199.469 1515 128.5C1515 57.5314 1457.47 0 1386.5 0C1315.53 0 1258 57.5314 1258 128.5C1258 199.469 1315.53 257 1386.5 257Z" fill="#403DD2" fill-opacity="0.65"/>
<path d="M1293 774C1397.38 774 1482 689.382 1482 585C1482 480.618 1397.38 396 1293 396C1188.62 396 1104 480.618 1104 585C1104 689.382 1188.62 774 1293 774Z" fill="#B647C8" fill-opacity="0.5"/>
<path d="M1678.5 523C1714.67 523 1744 493.675 1744 457.5C1744 421.325 1714.67 392 1678.5 392C1642.33 392 1613 421.325 1613 457.5C1613 493.675 1642.33 523 1678.5 523Z" fill="#CC278A" fill-opacity="0.57"/>
<path d="M906.5 850C949.302 850 984 815.302 984 772.5C984 729.698 949.302 695 906.5 695C863.698 695 829 729.698 829 772.5C829 815.302 863.698 850 906.5 850Z" fill="#CF2727" fill-opacity="0.5"/>
</svg>
